<!DOCTYPE svg PUBLIC "-//W3C//DTD SVG 1.1//EN" "http://www.w3.org/Graphics/SVG/1.1/DTD/svg11.dtd"><svg xmlns:ev="http://www.w3.org/2001/xml-events" xmlns:xlink="http://www.w3.org/1999/xlink" xmlns="http://www.w3.org/2000/svg" xmlns:v="http://schemas.microsoft.com/visio/2003/SVGExtensions/" width="572.9136" height="254.04384" viewBox="0 0 429.685 190.533" xml:space="preserve" color-interpolation-filters="sRGB" class="st7" version="1.1">
	

	<style type="text/css">
	<![CDATA[
		.st1 {fill:none;stroke:#000000;stroke-linecap:butt;stroke-opacity:0.74;stroke-width:0.903543}
		.st2 {fill:#000000;font-family:Arial,Helvetica,sans-serif;font-size:0.75em}
		.st3 {fill:none;stroke:none;stroke-linecap:butt;stroke-width:0.75}
		.st4 {fill:none}
		.st5 {stroke:#000000;stroke-linecap:butt;stroke-width:0.75}
		.st6 {font-size:1em}
		.st7 {fill:none;fill-rule:evenodd;font-size:12px;overflow:visible;stroke-linecap:square;stroke-miterlimit:3}
	]]>
	</style>

	<g>
		<title>Page-1</title>
		
		<g id="shape1-1" transform="translate(213.348,-38.4884)">
			<title>rect2869</title>
			<desc>X16 (IP0)</desc>
			
			
			<rect x="0" y="177.777" width="45.3543" height="12.7559" class="st1" />
			<text x="3.67" y="186.86" class="st2">X16 (IP0)</text>		</g>
		<g id="shape3-4" transform="translate(77.2854,-172.246)">
			<title>rect2837</title>
			<desc>X0</desc>
			
			
			<rect x="0" y="177.777" width="45.3543" height="12.7559" class="st1" />
			<text x="17.17" y="186.86" class="st2">X0</text>		</g>
		<g id="shape5-7" transform="translate(77.2854,-156.656)">
			<title>rect2839</title>
			<desc>X1</desc>
			
			
			<rect x="0" y="177.777" width="45.3543" height="12.7559" class="st1" />
			<text x="17.17" y="186.86" class="st2">X1</text>		</g>
		<g id="shape7-10" transform="translate(77.2854,-141.065)">
			<title>rect2841</title>
			<desc>X2</desc>
			
			
			<rect x="0" y="177.777" width="45.3543" height="12.7559" class="st1" />
			<text x="17.17" y="186.86" class="st2">X2</text>		</g>
		<g id="shape9-13" transform="translate(77.2854,-125.081)">
			<title>rect2843</title>
			<desc>X3</desc>
			
			
			<rect x="0" y="177.777" width="45.3543" height="12.7559" class="st1" />
			<text x="17.17" y="186.86" class="st2">X3</text>		</g>
		<g id="shape11-16" transform="translate(77.2854,-108.617)">
			<title>rect2845</title>
			<desc>X4</desc>
			
			
			<rect x="0" y="177.777" width="45.3543" height="12.7559" class="st1" />
			<text x="17.17" y="186.86" class="st2">X4</text>		</g>
		<g id="shape13-19" transform="translate(77.2854,-92.8118)">
			<title>rect2847</title>
			<desc>X5</desc>
			
			
			<rect x="0" y="177.777" width="45.3543" height="12.7559" class="st1" />
			<text x="17.17" y="186.86" class="st2">X5</text>		</g>
		<g id="shape15-22" transform="translate(77.2854,-77.0064)">
			<title>rect2849</title>
			<desc>X6</desc>
			
			
			<rect x="0" y="177.777" width="45.3543" height="12.7559" class="st1" />
			<text x="17.17" y="186.86" class="st2">X6</text>		</g>
		<g id="shape17-25" transform="translate(77.2854,-61.201)">
			<title>rect2851</title>
			<desc>X7</desc>
			
			
			<rect x="0" y="177.777" width="45.3543" height="12.7559" class="st1" />
			<text x="17.17" y="186.86" class="st2">X7</text>		</g>
		<g id="shape19-28" transform="translate(213.348,-173.11)">
			<title>rect2853</title>
			<desc>X8 (XR)</desc>
			
			
			<rect x="0" y="177.777" width="45.3543" height="12.7559" class="st1" />
			<text x="6.67" y="186.86" class="st2">X8 (XR)</text>		</g>
		<g id="shape21-31" transform="translate(213.348,-157.304)">
			<title>rect2855</title>
			<desc>X9</desc>
			
			
			<rect x="0" y="177.777" width="45.3543" height="12.7559" class="st1" />
			<text x="17.17" y="186.86" class="st2">X9</text>		</g>
		<g id="shape23-34" transform="translate(213.348,-141.499)">
			<title>rect2857</title>
			<desc>X10</desc>
			
			
			<rect x="0" y="177.777" width="45.3543" height="12.7559" class="st1" />
			<text x="14.67" y="186.86" class="st2">X10</text>		</g>
		<g id="shape25-37" transform="translate(213.348,-125.694)">
			<title>rect2859</title>
			<desc>X11</desc>
			
			
			<rect x="0" y="177.777" width="45.3543" height="12.7559" class="st1" />
			<text x="14.67" y="186.86" class="st2">X11</text>		</g>
		<g id="shape27-40" transform="translate(213.348,-109.888)">
			<title>rect2861</title>
			<desc>X12</desc>
			
			
			<rect x="0" y="177.777" width="45.3543" height="12.7559" class="st1" />
			<text x="14.67" y="186.86" class="st2">X12</text>		</g>
		<g id="shape29-43" transform="translate(213.348,-94.0829)">
			<title>rect2863</title>
			<desc>X13</desc>
			
			
			<rect x="0" y="177.777" width="45.3543" height="12.7559" class="st1" />
			<text x="14.67" y="186.86" class="st2">X13</text>		</g>
		<g id="shape31-46" transform="translate(213.348,-78.2775)">
			<title>rect2865</title>
			<desc>X14</desc>
			
			
			<rect x="0" y="177.777" width="45.3543" height="12.7559" class="st1" />
			<text x="14.67" y="186.86" class="st2">X14</text>		</g>
		<g id="shape33-49" transform="translate(213.348,-62.4721)">
			<title>rect2867</title>
			<desc>X15</desc>
			
			
			<rect x="0" y="177.777" width="45.3543" height="12.7559" class="st1" />
			<text x="14.67" y="186.86" class="st2">X15</text>		</g>
		<g id="shape35-52" transform="translate(269.201,-17.7579)">
			<title>text3035</title>
			<desc>Frame pointer</desc>
			
			
			<rect x="0" y="181.533" width="66.1989" height="9" class="st3" />
			<text x="0" y="188.73" class="st2">Frame pointer</text>		</g>
		<g id="shape36-55" transform="translate(269.201,-3.58465)">
			<title>text3041</title>
			<desc>Procedure Link register</desc>
			
			
			<rect x="0" y="181.533" width="98.2963" height="9" class="st3" />
			<text x="0" y="188.73" class="st2">Procedure Link register</text>		</g>
		<g id="shape39-58" transform="translate(75.4252,196.631) rotate(180)">
			<title>path3031-1</title>
			<path d="M0.18 67.23 L13.29 67.23 L13.29 190.53 L0 190.53 L0.18 67.23 Z" class="st4" />
			<path d="M0.18 67.23 L13.29 67.23 L13.29 190.53 L0 190.53" class="st5" />
		</g>
		<g id="shape40-61" transform="translate(208.654,194.647) rotate(180)">
			<title>path3031-4</title>
			<path d="M0.18 177.65 L13.29 177.65 L13.29 190.53 L0 190.53 L0.18 177.65 Z" class="st4" />
			<path d="M0.18 177.65 L13.29 177.65 L13.29 190.53 L0 190.53" class="st5" />
		</g>
		<g id="shape41-64" transform="translate(0.75,-109.121)">
			<title>text3061-0</title>
			<desc>Parameter and result registers</desc>
			
			
			<rect x="0" y="174.179" width="65.1969" height="16.3537" class="st3" />
			<text x="0" y="179.66" class="st2">Parameter and <tspan x="0" dy="10.8" class="st6">result registers</tspan></text>		</g>
		<g id="shape42-68" transform="translate(129.209,-173.663)">
			<title>text3061-0-8</title>
			<desc>Indirect result location register</desc>
			
			
			<rect x="0" y="178.394" width="71.9002" height="12.1392" class="st3" />
			<text x="0" y="181.76" class="st2">Indirect result <tspan x="0" dy="10.8" class="st6">location register</tspan></text>		</g>
		<g id="shape30-72" transform="translate(213.348,-22.2246)">
			<title>rect2837.30</title>
			<desc>X17 (IP1)</desc>
			
			
			<rect x="0" y="177.777" width="45.3543" height="12.7559" class="st1" />
			<text x="3.67" y="186.86" class="st2">X17 (IP1)</text>		</g>
		<g id="shape34-75" transform="translate(213.348,-6.41929)">
			<title>rect2839.34</title>
			<desc>X18 (PR)</desc>
			
			
			<rect x="0" y="177.777" width="45.3543" height="12.7559" class="st1" />
			<text x="4.17" y="186.86" class="st2">X18 (PR)</text>		</g>
		<g id="shape44-78" transform="translate(383.427,-174.845)">
			<title>rect2841.44</title>
			<desc>X19</desc>
			
			
			<rect x="0" y="177.777" width="45.3543" height="12.7559" class="st1" />
			<text x="14.67" y="186.86" class="st2">X19</text>		</g>
		<g id="shape46-81" transform="translate(383.427,-159.04)">
			<title>rect2843.46</title>
			<desc>X20</desc>
			
			
			<rect x="0" y="177.777" width="45.3543" height="12.7559" class="st1" />
			<text x="14.67" y="186.86" class="st2">X20</text>		</g>
		<g id="shape48-84" transform="translate(383.427,-143.234)">
			<title>rect2845.48</title>
			<desc>X21</desc>
			
			
			<rect x="0" y="177.777" width="45.3543" height="12.7559" class="st1" />
			<text x="14.67" y="186.86" class="st2">X21</text>		</g>
		<g id="shape50-87" transform="translate(383.427,-127.429)">
			<title>rect2847.50</title>
			<desc>X22</desc>
			
			
			<rect x="0" y="177.777" width="45.3543" height="12.7559" class="st1" />
			<text x="14.67" y="186.86" class="st2">X22</text>		</g>
		<g id="shape52-90" transform="translate(383.427,-111.623)">
			<title>rect2849.52</title>
			<desc>X23</desc>
			
			
			<rect x="0" y="177.777" width="45.3543" height="12.7559" class="st1" />
			<text x="14.67" y="186.86" class="st2">X23</text>		</g>
		<g id="shape54-93" transform="translate(383.427,-95.818)">
			<title>rect2851.54</title>
			<desc>X24</desc>
			
			
			<rect x="0" y="177.777" width="45.3543" height="12.7559" class="st1" />
			<text x="14.67" y="186.86" class="st2">X24</text>		</g>
		<g id="shape56-96" transform="translate(383.427,-80.0127)">
			<title>rect2853.56</title>
			<desc>X25</desc>
			
			
			<rect x="0" y="177.777" width="45.3543" height="12.7559" class="st1" />
			<text x="14.67" y="186.86" class="st2">X25</text>		</g>
		<g id="shape58-99" transform="translate(383.427,-64.2073)">
			<title>rect2855.58</title>
			<desc>X26</desc>
			
			
			<rect x="0" y="177.777" width="45.3543" height="12.7559" class="st1" />
			<text x="14.67" y="186.86" class="st2">X26</text>		</g>
		<g id="shape60-102" transform="translate(383.427,-48.402)">
			<title>rect2857.60</title>
			<desc>X27</desc>
			
			
			<rect x="0" y="177.777" width="45.3543" height="12.7559" class="st1" />
			<text x="14.67" y="186.86" class="st2">X27</text>		</g>
		<g id="shape62-105" transform="translate(383.427,-32.5966)">
			<title>rect2859.62</title>
			<desc>X28</desc>
			
			
			<rect x="0" y="177.777" width="45.3543" height="12.7559" class="st1" />
			<text x="14.67" y="186.86" class="st2">X28</text>		</g>
		<g id="shape64-108" transform="translate(383.427,-16.7912)">
			<title>rect2861.64</title>
			<desc>X29 (FP)</desc>
			
			
			<rect x="0" y="177.777" width="45.3543" height="12.7559" class="st1" />
			<text x="4.67" y="186.86" class="st2">X29 (FP)</text>		</g>
		<g id="shape66-111" transform="translate(383.427,-0.985851)">
			<title>rect2863.66</title>
			<desc>X30 (LR)</desc>
			
			
			<rect x="0" y="177.777" width="45.3543" height="12.7559" class="st1" />
			<text x="4.67" y="186.86" class="st2">X30 (LR)</text>		</g>
		<g id="shape2-114" transform="translate(208.654,210.363) rotate(180)">
			<title>path3031-1.2</title>
			<path d="M0.18 79.98 L13.29 79.98 L13.29 190.53 L0 190.53 L0.18 79.98 Z" class="st4" />
			<path d="M0.18 79.98 L13.29 79.98 L13.29 190.53 L0 190.53" class="st5" />
		</g>
		<g id="shape38-117" transform="translate(144.188,-94.4947)">
			<title>text3061-0.38</title>
			<desc>Caller saved temporary registers</desc>
			
			
			<rect x="0" y="154.009" width="53.2809" height="36.5236" class="st3" />
			<text x="0" y="164.17" class="st2">Caller saved <tspan x="0" dy="10.8" class="st6">temporary </tspan><tspan x="0" dy="10.8" class="st6">registers</tspan></text>		</g>
		<g id="shape67-122" transform="translate(208.654,331.155) rotate(180)">
			<title>path3031-4.67</title>
			<path d="M0.18 162.83 L13.29 162.83 L13.29 190.53 L0 190.53 L0.18 162.83 Z" class="st4" />
			<path d="M0.18 162.83 L13.29 162.83 L13.29 190.53 L0 190.53" class="st5" />
		</g>
		<g id="shape68-125" transform="translate(129.209,-24.8445)">
			<title>text3061-0-8.68</title>
			<desc>Intra-procedure call scratch registers</desc>
			
			
			<rect x="0" y="165.021" width="63.7795" height="25.5118" class="st3" />
			<text x="0" y="169.68" class="st2">Intra-procedure <tspan x="0" dy="10.8" class="st6">call scratch </tspan><tspan x="0" dy="10.8" class="st6">registers</tspan></text>		</g>
		<g id="shape74-130" transform="translate(208.654,361.691) rotate(180)">
			<title>path3031-4.74</title>
			<path d="M0.18 177.78 L13.29 177.78 L13.29 190.53 L0 190.53 L0.18 177.78 Z" class="st4" />
			<path d="M0.18 177.78 L13.29 177.78 L13.29 190.53 L0 190.53" class="st5" />
		</g>
		<g id="shape75-133" transform="translate(129.209,-2.16732)">
			<title>text3061-0-8.75</title>
			<desc>Platform register</desc>
			
			
			<rect x="0" y="170.29" width="69.0656" height="20.2428" class="st3" />
			<text x="0" y="183.11" class="st2">Platform register</text>		</g>
		<g id="shape76-136" transform="translate(377.758,193.229) rotate(180)">
			<title>path3031-1.76</title>
			<path d="M0.18 34.63 L13.29 34.63 L13.29 190.53 L0 190.53 L0.18 34.63 Z" class="st4" />
			<path d="M0.18 34.63 L13.29 34.63 L13.29 190.53 L0 190.53" class="st5" />
		</g>
		<g id="shape77-139" transform="translate(309.306,-97.128)">
			<title>text3061-0.77</title>
			<desc>Callee saved registers</desc>
			
			
			<rect x="0" y="154.009" width="63.2022" height="36.5236" class="st3" />
			<text x="0" y="169.57" class="st2">Callee saved  <tspan x="0" dy="10.8" class="st6">registers</tspan></text>		</g>
		<g id="shape78-143" transform="translate(377.758,351.97) rotate(180)">
			<title>path3031-4.78</title>
			<path d="M0.18 177.78 L13.29 177.78 L13.29 190.53 L0 190.53 L0.18 177.78 Z" class="st4" />
			<path d="M0.18 177.78 L13.29 177.78 L13.29 190.53 L0 190.53" class="st5" />
		</g>
		<g id="shape79-146" transform="translate(377.758,367.56) rotate(180)">
			<title>path3031-4.79</title>
			<path d="M0.18 177.78 L13.29 177.78 L13.29 190.53 L0 190.53 L0.18 177.78 Z" class="st4" />
			<path d="M0.18 177.78 L13.29 177.78 L13.29 190.53 L0 190.53" class="st5" />
		</g>
	</g>
</svg>
